<svg xmlns="http://www.w3.org/2000/svg" width="900" height="620" viewBox="0 0 900 620">
  <defs>
    <linearGradient id="bg2" x1="0" y1="0" x2="1" y2="1">
      <stop offset="0%" stop-color="#fbfdff"/>
      <stop offset="60%" stop-color="#eef4fb"/>
      <stop offset="100%" stop-color="#ffffff"/>
    </linearGradient>
    <linearGradient id="coat" x1="0" y1="0" x2="0" y2="1">
      <stop offset="0%" stop-color="#ffffff"/>
      <stop offset="100%" stop-color="#eef2f6"/>
    </linearGradient>
  </defs>
  <rect width="900" height="620" rx="32" fill="url(#bg2)"/>
  <ellipse cx="568" cy="140" rx="120" ry="124" fill="#f6f9fc"/>
  <ellipse cx="582" cy="86" rx="78" ry="60" fill="#7ba6ff"/>
  <circle cx="582" cy="104" r="22" fill="#ffffff" opacity=".9"/>
  <g transform="translate(360 64)">
    <ellipse cx="176" cy="44" rx="78" ry="86" fill="#e1b49a"/>
    <path d="M104 46c24-64 145-58 154 8-23-18-56-21-76-18-40 7-56 27-78 38z" fill="#2d3c55"/>
    <path d="M86 122c24-30 71-38 90-39 30-1 67 13 98 39v250H86z" fill="url(#coat)"/>
    <path d="M168 140l16 24 16-24" fill="#7fa7ff"/>
    <path d="M164 141v119" stroke="#7fa7ff" stroke-width="10" stroke-linecap="round"/>
    <circle cx="140" cy="225" r="10" fill="#f8fbff" stroke="#cad8e7" stroke-width="3"/>
    <circle cx="228" cy="225" r="10" fill="#f8fbff" stroke="#cad8e7" stroke-width="3"/>
    <path d="M140 236l-20 122" stroke="#d5e0ea" stroke-width="12" stroke-linecap="round"/>
    <path d="M228 236l20 122" stroke="#d5e0ea" stroke-width="12" stroke-linecap="round"/>
    <rect x="90" y="306" width="64" height="110" rx="16" fill="#f6f9fc" stroke="#d6e1eb" stroke-width="4"/>
    <circle cx="208" cy="212" r="30" fill="none" stroke="#5e83d3" stroke-width="10"/>
    <path d="M208 242v70" stroke="#5e83d3" stroke-width="10" stroke-linecap="round"/>
  </g>
</svg>
