<svg xmlns="http://www.w3.org/2000/svg" width="900" height="640" viewBox="0 0 900 640">
  <defs>
    <linearGradient id="bg" x1="0" y1="0" x2="1" y2="1">
      <stop offset="0%" stop-color="#455f63"/>
      <stop offset="45%" stop-color="#90a2a3"/>
      <stop offset="100%" stop-color="#f2f5f7"/>
    </linearGradient>
    <linearGradient id="screen" x1="0" y1="0" x2="1" y2="1">
      <stop offset="0%" stop-color="#f4fbff"/>
      <stop offset="100%" stop-color="#dbe8f3"/>
    </linearGradient>
  </defs>
  <rect width="900" height="640" rx="36" fill="url(#bg)"/>
  <circle cx="112" cy="94" r="58" fill="#628975" opacity=".38"/>
  <circle cx="736" cy="72" r="80" fill="#ffffff" opacity=".5"/>
  <rect x="415" y="104" width="220" height="292" rx="20" fill="#f7fafc" opacity=".95"/>
  <rect x="436" y="128" width="54" height="76" rx="8" fill="#d8e1e7"/>
  <rect x="501" y="128" width="54" height="76" rx="8" fill="#ecf3f8"/>
  <rect x="566" y="128" width="48" height="102" rx="8" fill="#5e6876"/>
  <rect x="436" y="220" width="83" height="77" rx="8" fill="#f5f9fc"/>
  <rect x="530" y="220" width="84" height="24" rx="6" fill="#c8d7e2"/>
  <rect x="530" y="253" width="84" height="44" rx="6" fill="#dee9f0"/>
  <rect x="436" y="308" width="178" height="64" rx="8" fill="#eff6fa"/>
  <rect x="584" y="415" width="176" height="135" rx="18" fill="#f4f7fa"/>
  <rect x="156" y="378" width="330" height="165" rx="18" fill="#cfd7df" opacity=".4"/>
  <g transform="translate(314 343)">
    <path d="M0 64h166l-12 70H18z" fill="#d7dde5"/>
    <rect x="12" y="0" width="154" height="98" rx="12" fill="#eff6fb" stroke="#ccdceb" stroke-width="4"/>
    <rect x="28" y="18" width="122" height="62" rx="8" fill="url(#screen)"/>
    <circle cx="80" cy="48" r="18" fill="#8aaac4"/>
    <path d="M66 72c11-14 36-14 48 0" fill="none" stroke="#7f98b4" stroke-width="10" stroke-linecap="round"/>
  </g>
  <ellipse cx="744" cy="488" rx="48" ry="102" fill="#e3b9a2"/>
  <ellipse cx="712" cy="456" rx="36" ry="76" fill="#f0f4f6"/>
  <ellipse cx="668" cy="500" rx="24" ry="56" fill="#d7e1ea"/>
  <rect x="728" y="446" width="18" height="86" rx="9" fill="#8ea2b8"/>
  <rect x="86" y="532" width="204" height="56" rx="20" fill="#ffffff" opacity=".96"/>
  <circle cx="126" cy="560" r="22" fill="#dcfff0"/>
  <path d="M112 560h10l6-16 8 30 8-18h12" fill="none" stroke="#1db25d" stroke-width="4" stroke-linecap="round" stroke-linejoin="round"/>
  <text x="162" y="554" font-family="Arial, sans-serif" font-size="24" fill="#7788a4">Available Now</text>
  <text x="162" y="582" font-family="Arial, sans-serif" font-size="30" font-weight="700" fill="#2e82ea">200+ Doctors Online</text>
</svg>
